<svg width="32" height="32" viewBox="0 0 32 32" fill="none" xmlns="http://www.w3.org/2000/svg">
<path d="M0 12.8C0 8.31958 0 6.07937 0.871948 4.36808C1.63893 2.86278 2.86278 1.63893 4.36808 0.871948C6.07937 0 8.31958 0 12.8 0H19.2C23.6804 0 25.9206 0 27.6319 0.871948C29.1372 1.63893 30.3611 2.86278 31.1281 4.36808C32 6.07937 32 8.31958 32 12.8V19.2C32 23.6804 32 25.9206 31.1281 27.6319C30.3611 29.1372 29.1372 30.3611 27.6319 31.1281C25.9206 32 23.6804 32 19.2 32H12.8C8.31958 32 6.07937 32 4.36808 31.1281C2.86278 30.3611 1.63893 29.1372 0.871948 27.6319C0 25.9206 0 23.6804 0 19.2V12.8Z" fill="#F6F6F9"/>
<path d="M17.895 13.9219C15.008 13.0033 12.3922 12.5484 12.3922 10.7112C12.3922 8.60281 14.5443 8.00792 16.3815 8.09541C18.2187 8.13915 20.2833 9.05774 21.1932 10.7987L24.5438 7.99916C23.0303 5.38336 19.4085 3.86987 15.6029 3.86987C10.7387 3.91362 6.88937 6.30197 6.88937 10.7462C6.88937 15.4704 10.9224 16.8876 14.4043 18.0337C17.1601 18.9085 19.6272 19.5034 19.6272 21.3319C19.6272 23.1603 17.8862 23.9914 15.2704 23.9039C12.8821 23.7639 10.4588 22.5742 9.58391 20.6057L6.14575 23.589C7.79922 26.2923 11.5086 28.1294 15.9091 28.1294C21.0444 28.1732 25.2612 25.9248 25.2612 21.3406C25.2612 16.5289 21.3594 15.0592 17.8775 13.9131L17.895 13.9219Z" fill="#12131A"/>
</svg>
