<svg width="360" height="360" viewBox="0 0 360 360" fill="none" xmlns="http://www.w3.org/2000/svg">
<path d="M0 28.8C0 18.7191 0 13.6786 1.96188 9.82817C3.6876 6.44125 6.44125 3.6876 9.82817 1.96188C13.6786 0 18.7191 0 28.8 0H331.2C341.281 0 346.321 0 350.172 1.96188C353.559 3.6876 356.312 6.44125 358.038 9.82817C360 13.6786 360 18.7191 360 28.8V331.2C360 341.281 360 346.321 358.038 350.172C356.312 353.559 353.559 356.312 350.172 358.038C346.321 360 341.281 360 331.2 360H28.8C18.7191 360 13.6786 360 9.82817 358.038C6.44125 356.312 3.6876 353.559 1.96188 350.172C0 346.321 0 341.281 0 331.2V28.8Z" fill="#F6F6F9"/>
<path d="M201.154 156.803C168.927 146.549 139.728 141.471 139.728 120.963C139.728 97.4271 163.751 90.7864 184.259 91.763C204.767 92.2513 227.815 102.505 237.971 121.939L275.374 90.6886C258.479 61.489 218.049 44.5942 175.568 44.5942C121.27 45.0825 78.3009 71.7432 78.3009 121.353C78.3009 174.088 123.321 189.909 162.189 202.702C192.951 212.468 220.49 219.108 220.49 239.519C220.49 259.929 201.056 269.207 171.857 268.23C145.196 266.667 118.145 253.386 108.379 231.413L70 264.714C88.4573 294.891 129.864 315.399 178.986 315.399C236.311 315.887 283.382 290.789 283.382 239.616C283.382 185.905 239.826 169.498 200.959 156.705L201.154 156.803Z" fill="#12131A"/>
</svg>
