<?xml version="1.0" standalone="no"?>
<!DOCTYPE svg PUBLIC "-//W3C//DTD SVG 20010904//EN"
 "http://www.w3.org/TR/2001/REC-SVG-20010904/DTD/svg10.dtd">
<svg version="1.0" xmlns="http://www.w3.org/2000/svg"
 width="512.000000pt" height="512.000000pt" viewBox="0 0 512.000000 512.000000"
 preserveAspectRatio="xMidYMid meet">

<g transform="translate(0.000000,512.000000) scale(0.100000,-0.100000)"
fill="#000000" stroke="none">
<path d="M2745 4691 l-330 -228 -3 -2132 -2 -2133 98 54 c54 29 205 111 335
183 l237 130 0 2178 c0 1197 -1 2177 -2 2177 -2 0 -151 -103 -333 -229z"/>
<path d="M2130 3524 c-14 -3 -77 -11 -140 -20 -719 -97 -1300 -372 -1634 -773
-131 -157 -222 -320 -285 -507 -105 -317 -91 -602 43 -896 76 -167 256 -385
421 -510 297 -224 681 -398 1150 -518 118 -30 477 -100 515 -100 19 0 20 9 20
245 0 243 0 245 -21 245 -31 0 -238 47 -358 81 -648 185 -1031 548 -1032 979
-1 326 144 622 405 824 235 181 581 321 914 367 l92 13 0 288 0 288 -32 -1
c-18 -1 -44 -3 -58 -5z"/>
<path d="M3240 3263 l0 -270 75 -6 c157 -14 317 -58 470 -132 88 -42 235 -138
235 -153 0 -4 -60 -32 -132 -62 -73 -29 -158 -64 -188 -78 l-55 -25 730 -183
c402 -101 733 -184 738 -184 4 0 7 259 7 575 0 316 -2 575 -4 575 -2 0 -115
-63 -251 -139 l-246 -140 -97 73 c-312 235 -728 380 -1184 412 l-98 7 0 -270z"/>
</g>
</svg>
